<?xml version="1.0" encoding="UTF-8" standalone="no"?> <svg width="48" height="48" viewBox="0 0 48 48" fill="none" xmlns="http://www.w3.org/2000/svg">
<path d="M15 20H12C11.4696 20 10.9609 20.2107 10.5858 20.5858C10.2107 20.9609 10 21.4696 10 22V25C10 25.5304 10.2107 26.0391 10.5858 26.4142C10.9609 26.7893 11.4696 27 12 27H15C15.5304 27 16.0391 26.7893 16.4142 26.4142C16.7893 26.0391 17 25.5304 17 25V22C17 21.4696 16.7893 20.9609 16.4142 20.5858C16.0391 20.2107 15.5304 20 15 20ZM12 25V22H15V25H12Z" fill="black"/>
<path d="M15 30H12C11.4696 30 10.9609 30.2107 10.5858 30.5858C10.2107 30.9609 10 31.4696 10 32V35C10 35.5304 10.2107 36.0391 10.5858 36.4142C10.9609 36.7893 11.4696 37 12 37H15C15.5304 37 16.0391 36.7893 16.4142 36.4142C16.7893 36.0391 17 35.5304 17 35V32C17 31.4696 16.7893 30.9609 16.4142 30.5858C16.0391 30.2107 15.5304 30 15 30ZM12 35V32H15V35H12Z" fill="black"/>
<path d="M22.5 27H25.5C26.0304 27 26.5391 26.7893 26.9142 26.4142C27.2893 26.0391 27.5 25.5304 27.5 25V22C27.5 21.4696 27.2893 20.9609 26.9142 20.5858C26.5391 20.2107 26.0304 20 25.5 20H22.5C21.9696 20 21.4609 20.2107 21.0858 20.5858C20.7107 20.9609 20.5 21.4696 20.5 22V25C20.5 25.5304 20.7107 26.0391 21.0858 26.4142C21.4609 26.7893 21.9696 27 22.5 27ZM22.5 22H25.5V25H22.5V22Z" fill="black"/>
<path d="M43 29.026V11C42.9984 9.6744 42.4711 8.40356 41.5338 7.46622C40.5964 6.52888 39.3256 6.00159 38 6H36V5C36 4.20435 35.6839 3.44129 35.1213 2.87868C34.5587 2.31607 33.7956 2 33 2C32.2044 2 31.4413 2.31607 30.8787 2.87868C30.3161 3.44129 30 4.20435 30 5V6H18V5C18 4.20435 17.6839 3.44129 17.1213 2.87868C16.5587 2.31607 15.7956 2 15 2C14.2044 2 13.4413 2.31607 12.8787 2.87868C12.3161 3.44129 12 4.20435 12 5V6H10C8.6744 6.00159 7.40356 6.52888 6.46622 7.46622C5.52888 8.40356 5.00159 9.6744 5 11V38C5.00159 39.3256 5.52888 40.5964 6.46622 41.5338C7.40356 42.4711 8.6744 42.9984 10 43H29.026C30.9478 44.4444 33.3264 45.1465 35.7245 44.9773C38.1226 44.8081 40.379 43.7789 42.079 42.079C43.7789 40.379 44.8081 38.1226 44.9773 35.7245C45.1465 33.3264 44.4444 30.9478 43 29.026ZM32 5C32 4.73478 32.1054 4.48043 32.2929 4.29289C32.4804 4.10536 32.7348 4 33 4C33.2652 4 33.5196 4.10536 33.7071 4.29289C33.8946 4.48043 34 4.73478 34 5V9C34 9.26522 33.8946 9.51957 33.7071 9.70711C33.5196 9.89464 33.2652 10 33 10C32.7348 10 32.4804 9.89464 32.2929 9.70711C32.1054 9.51957 32 9.26522 32 9V5ZM14 5C14 4.73478 14.1054 4.48043 14.2929 4.29289C14.4804 4.10536 14.7348 4 15 4C15.2652 4 15.5196 4.10536 15.7071 4.29289C15.8946 4.48043 16 4.73478 16 5V9C16 9.26522 15.8946 9.51957 15.7071 9.70711C15.5196 9.89464 15.2652 10 15 10C14.7348 10 14.4804 9.89464 14.2929 9.70711C14.1054 9.51957 14 9.26522 14 9V5ZM10 8H12V9C12 9.79565 12.3161 10.5587 12.8787 11.1213C13.4413 11.6839 14.2044 12 15 12C15.7956 12 16.5587 11.6839 17.1213 11.1213C17.6839 10.5587 18 9.79565 18 9V8H30V9C30 9.79565 30.3161 10.5587 30.8787 11.1213C31.4413 11.6839 32.2044 12 33 12C33.7956 12 34.5587 11.6839 35.1213 11.1213C35.6839 10.5587 36 9.79565 36 9V8H38C38.7956 8 39.5587 8.31607 40.1213 8.87868C40.6839 9.44129 41 10.2044 41 11V15H7V11C7 10.2044 7.31607 9.44129 7.87868 8.87868C8.44129 8.31607 9.20435 8 10 8V8ZM7 38V17H41V27.019C40.0808 26.3213 39.0474 25.7884 37.946 25.444C37.9808 25.2985 37.9989 25.1496 38 25V22C38 21.4696 37.7893 20.9609 37.4142 20.5858C37.0391 20.2107 36.5304 20 36 20H33C32.4696 20 31.9609 20.2107 31.5858 20.5858C31.2107 20.9609 31 21.4696 31 22V25C31.0001 25.2647 31.0528 25.5268 31.155 25.771C29.1227 26.6255 27.4277 28.1245 26.331 30.037C26.2219 30.0156 26.1112 30.0032 26 30H23C22.4696 30 21.9609 30.2107 21.5858 30.5858C21.2107 30.9609 21 31.4696 21 32V35C21 35.5304 21.2107 36.0391 21.5858 36.4142C21.9609 36.7893 22.4696 37 23 37H25.2C25.4996 38.4522 26.1205 39.8189 27.017 41H10C9.20435 41 8.44129 40.6839 7.87868 40.1213C7.31607 39.5587 7 38.7956 7 38ZM33 25V22H36V25H33ZM25 35H23V32H25.461C25.1554 32.9707 24.9999 33.9824 25 35ZM35 43C33.4177 43 31.871 42.5308 30.5554 41.6518C29.2398 40.7727 28.2145 39.5233 27.609 38.0615C27.0035 36.5997 26.845 34.9911 27.1537 33.4393C27.4624 31.8874 28.2243 30.462 29.3431 29.3431C30.462 28.2243 31.8874 27.4624 33.4393 27.1537C34.9911 26.845 36.5997 27.0035 38.0615 27.609C39.5233 28.2145 40.7727 29.2398 41.6518 30.5554C42.5308 31.871 43 33.4177 43 35C42.9976 37.121 42.154 39.1544 40.6542 40.6542C39.1544 42.154 37.121 42.9976 35 43V43Z" fill="black"/>
<path d="M38 34H36V30C36 29.7348 35.8946 29.4804 35.7071 29.2929C35.5196 29.1054 35.2652 29 35 29C34.7348 29 34.4804 29.1054 34.2929 29.2929C34.1054 29.4804 34 29.7348 34 30V35C34 35.2652 34.1054 35.5196 34.2929 35.7071C34.4804 35.8946 34.7348 36 35 36H38C38.2652 36 38.5196 35.8946 38.7071 35.7071C38.8946 35.5196 39 35.2652 39 35C39 34.7348 38.8946 34.4804 38.7071 34.2929C38.5196 34.1054 38.2652 34 38 34Z" fill="black"/>
</svg>
